Coordinates
version=1
nRows=11
nColumns=26
inDegrees=yes

Units are S.I. units (second, meters, Newtons, ...)
Angles are in degrees.

endheader
time	pelvis_tilt	pelvis_list	pelvis_rotation	pelvis_tx	pelvis_ty	pelvis_tz	hip_flexion_r	hip_adduction_r	hip_rotation_r	knee_angle_r	knee_angle_r_beta	ankle_angle_r	subtalar_angle_r	mtp_angle_r	hip_flexion_l	hip_adduction_l	hip_rotation_l	knee_angle_l	knee_angle_l_beta	ankle_angle_l	subtalar_angle_l	mtp_angle_l	lumbar_extension	lumbar_bending	lumbar_rotation
      0.00000000000000000000	      3.65464479780832190000	     -4.22720437654665380000	     -4.09030343676788990000	      0.04770963092864687100	      0.98944375886031688000	      0.19355468277459981000	    -17.71954727246673400000	      5.15840921610067230000	      1.59827414364986890000	      7.88712545659490250000	      7.88712545659490250000	     13.29997109213290000000	      0.00000000000000000000	      0.00000000000000000000	     23.37843827707608200000	     -7.15081978774705630000	    -10.95187817387323100000	     13.04432604938013900000	     13.04432604938013900000	     -0.94992757675019612000	      0.00000000000000000000	      0.00000000000000000000	    -18.78457423851677900000	      3.00751779085862790000	      8.88390277456768370000
      0.00833333333333333320	      3.88085527318945460000	     -3.99978435576107930000	     -4.55865665071890280000	      0.05801827231270487900	      0.98892415787060306000	      0.19344179124263680000	    -18.38208833659126600000	      4.64437477088889670000	      1.74873045756646770000	      8.30059969552559810000	      8.30059969552559810000	     13.41202416307810300000	      0.00000000000000000000	      0.00000000000000000000	     22.66550435730236400000	     -6.92922044607510570000	    -11.35775844115876700000	     13.32507336816938800000	     13.32507336816938800000	     -1.39352626287107360000	      0.00000000000000000000	      0.00000000000000000000	    -18.92216655718769400000	      2.49064505675190470000	      9.12802496944674320000
      0.01666666666666666600	      3.90931330978306240000	     -3.90510438820858410000	     -4.86611720754362230000	      0.06839488348837059800	      0.98816164285065700000	      0.19303556025318233000	    -18.81361821175146400000	      4.33952066622775940000	      1.85666538412757200000	      8.69300866775209440000	      8.69300866775209440000	     13.24375140188183100000	      0.00000000000000000000	      0.00000000000000000000	     22.35719293339570900000	     -6.80965496019102720000	    -11.16889490552643800000	     13.83512039059680800000	     13.83512039059680800000	     -1.94058810738228170000	      0.00000000000000000000	      0.00000000000000000000	    -18.81516959396105500000	      2.21238427075465480000	      9.20284811034546560000
      0.02500000000000000100	      3.99755702407013700000	     -3.81184844245311580000	     -5.17174458076449640000	      0.07876287423310653100	      0.98772871837965492000	      0.19250985041523180000	    -19.21575475416890900000	      4.01349931101532050000	      1.98419561075500630000	      9.29467700924438840000	      9.29467700924438840000	     13.12798082698729600000	      0.00000000000000000000	      0.00000000000000000000	     21.98780011848228400000	     -6.69618701774601990000	    -11.01563280177056800000	     14.39978323318318600000	     14.39978323318318600000	     -2.79050494667192340000	      0.00000000000000000000	      0.00000000000000000000	    -18.78401091681607200000	      1.94010028568910520000	      9.26739967912378760000
      0.03333333333333333300	      4.13361323189069820000	     -3.62692353347029470000	     -5.60833522446827090000	      0.08916055370344808100	      0.98757123679261416000	      0.19203618507391362000	    -19.37577289705779600000	      3.50858958684283050000	      1.86034860569649060000	     10.48452815611951500000	     10.48452815611951500000	     13.39168997853061600000	      0.00000000000000000000	      0.00000000000000000000	     21.34910940768299200000	     -6.50428303990273630000	    -11.27136693586923500000	     14.48464603171262500000	     14.48464603171262500000	     -4.07784107487868310000	      0.00000000000000000000	      0.00000000000000000000	    -18.77990682421217300000	      1.53681754373772720000	      9.50900281125368710000
      0.04166666666666666400	      4.18120777482349930000	     -3.60885784773966070000	     -5.77511294083597450000	      0.09963775091603580000	      0.98735303181338774000	      0.19129733356329776000	    -19.63834983855742800000	      3.28333688015391930000	      1.97957215279007490000	     11.17846287941606000000	     11.17846287941606000000	     12.93325561420664900000	      0.00000000000000000000	      0.00000000000000000000	     21.00264028972660000000	     -6.44999329401085840000	    -11.09371944040536700000	     14.93652859088605200000	     14.93652859088605200000	     -4.86889541881229530000	      0.00000000000000000000	      0.00000000000000000000	    -18.69077883945982100000	      1.38584792620268350000	      9.42133541119015310000
      0.05000000000000000300	      4.28273937528993450000	     -3.59736723354437340000	     -5.90870052900295930000	      0.11003490569227117000	      0.98749007845388193000	      0.19046868090940647000	    -19.73140320154449200000	      3.04672162736782330000	      1.94209079934053320000	     12.29277869997922100000	     12.29277869997922100000	     12.40803622683373100000	      0.00000000000000000000	      0.00000000000000000000	     20.60929208990517100000	     -6.43874121074810010000	    -11.13433683140984500000	     15.43950422307901100000	     15.43950422307901100000	     -5.67129344231788490000	      0.00000000000000000000	      0.00000000000000000000	    -18.67192021408788300000	      1.26117846695899650000	      9.27856257428320140000
      0.05833333333333333400	      4.26614661396547930000	     -3.42321856463136860000	     -6.10553057499653380000	      0.12051145572578162000	      0.98774836816106049000	      0.18977477081513552000	    -19.30268126976047300000	      2.60365925174670830000	      1.40708200447636860000	     14.23901890600643400000	     14.23901890600643400000	     12.54376608621076600000	      0.00000000000000000000	      0.00000000000000000000	     20.14078328262511500000	     -6.27214224673114980000	    -11.51118296637067800000	     15.65384918096604800000	     15.65384918096604800000	     -5.98953988800619450000	      0.00000000000000000000	      0.00000000000000000000	    -18.47557878566638200000	      0.94328432397158724000	      9.24952487451447420000
      0.06666666666666666600	      4.20178905035029790000	     -3.32075516147148740000	     -6.17902203993156180000	      0.13077725625779593000	      0.98828395720104012000	      0.18902313379586089000	    -18.79736109107033600000	      2.29259727149192560000	      1.17705947086848180000	     16.10050572058387500000	     16.10050572058387500000	     12.13848848250826900000	      0.00000000000000000000	      0.00000000000000000000	     19.96547411034786300000	     -6.18199912727570760000	    -11.55084243336864000000	     16.41491079494290200000	     16.41491079494290200000	     -5.49294866909218800000	      0.00000000000000000000	      0.00000000000000000000	    -18.27854049304906800000	      0.72681285644567462000	      9.02801574754493960000
      0.07499999999999999700	      4.19626759506734540000	     -2.98727426588901150000	     -6.13978406235616440000	      0.14086223440650622000	      0.98924989022888876000	      0.18810569125292470000	    -18.15542997676151800000	      1.75096849379454130000	      0.78391563325642222000	     18.28645971774908900000	     18.28645971774908900000	     11.77863595548412900000	      0.00000000000000000000	      0.00000000000000000000	     19.86550787917959200000	     -5.80055619606050050000	    -11.41554355667280500000	     17.46899589726704600000	     17.46899589726704600000	     -4.53616062036151660000	      0.00000000000000000000	      0.00000000000000000000	    -18.17169578229373900000	      0.24080477723902718000	      8.70251671429674010000
      0.08333333333333332900	      4.36107324526698650000	     -2.65769208169898400000	     -6.04165387462847030000	      0.15100695818928592000	      0.99079057835236983000	      0.18702365466072665000	    -17.60056610022173000000	      1.17774273047181400000	      0.35279537890671375000	     20.54787302017845700000	     20.54787302017845700000	     11.06096671752728400000	      0.00000000000000000000	      0.00000000000000000000	     19.52763954811177900000	     -5.34720250914843390000	    -11.19916940551427900000	     18.42204952558491700000	     18.42204952558491700000	     -3.61942212902443390000	      0.00000000000000000000	      0.00000000000000000000	    -18.27405203819993000000	     -0.19441876047037396000	      8.33518938742979110000
